<svg width="167" height="169" viewBox="0 0 167 169" fill="none" xmlns="http://www.w3.org/2000/svg">
<path d="M25.9492 52.2652L83.6937 146.099L59.1523 52.2652H25.9492Z" fill="#FF0000" fill-opacity="0.1"/>
<path d="M83.6937 21.9493L25.9492 52.2652H59.1523L83.6937 21.9493Z" fill="#FF0000" fill-opacity="0.4"/>
<path d="M83.6976 52.2652V21.9493L59.1562 52.2652H83.6976Z" fill="#FF0000" fill-opacity="0.8"/>
<path d="M108.239 52.2652L83.6973 21.9493V52.2652H108.239Z" fill="#FF0000" fill-opacity="0.8"/>
<path d="M83.6973 146.099L108.239 52.2652H83.6973V146.099Z" fill="#FF0000" fill-opacity="0.7"/>
<path d="M59.1562 52.2652L83.6976 146.099V52.2652H59.1562Z" fill="#FF0000" fill-opacity="0.7"/>
<path d="M141.443 52.2652L112.569 37.1072L83.6973 21.9493L108.239 52.2652H141.443Z" fill="#FF0000" fill-opacity="0.4"/>
<path d="M83.6973 146.099L141.443 52.2652H108.239L83.6973 146.099Z" fill="#FF0000" fill-opacity="0.1"/>
<path fill-rule="evenodd" clip-rule="evenodd" d="M83.6977 21.4597L141.788 51.9566L152.053 78.3561L83.6977 146.713L15.3418 78.3561L25.6083 51.9566L83.6977 21.4597ZM26.041 53.2337L16.354 78.1433L81.3957 143.185L26.041 53.2337ZM85.9998 143.185L151.041 78.1433L141.354 53.2337L85.9998 143.185ZM139.685 51.8315L85.3555 23.3082L108.446 51.8315H139.685ZM107.331 51.8315L84.1308 23.172V51.8315H107.331ZM83.2647 51.8315V23.172L60.064 51.8315H83.2647ZM59.7173 52.6977H83.2647V142.732L59.7173 52.6977ZM58.8219 52.6977L82.5433 143.398L26.7283 52.6977H58.8219ZM27.7098 51.8315H58.9498L82.04 23.3082L27.7098 51.8315ZM84.852 143.398L140.667 52.6977H108.573L84.852 143.398ZM107.678 52.6977H84.1308V142.732L107.678 52.6977Z" fill="#FF0000"/>
</svg>
